Coordinates
version=1
nRows=16
nColumns=40
inDegrees=yes

Units are S.I. units (second, meters, Newtons, ...)
Angles are in degrees.

endheader
time	pelvis_tilt	pelvis_list	pelvis_rotation	pelvis_tx	pelvis_ty	pelvis_tz	hip_flexion_r	hip_adduction_r	hip_rotation_r	knee_angle_r	knee_angle_r_beta	ankle_angle_r	subtalar_angle_r	mtp_angle_r	hip_flexion_l	hip_adduction_l	hip_rotation_l	knee_angle_l	knee_angle_l_beta	ankle_angle_l	subtalar_angle_l	mtp_angle_l	lumbar_extension	lumbar_bending	lumbar_rotation	arm_flex_r	arm_add_r	arm_rot_r	elbow_flex_r	pro_sup_r	wrist_flex_r	wrist_dev_r	arm_flex_l	arm_add_l	arm_rot_l	elbow_flex_l	pro_sup_l	wrist_flex_l	wrist_dev_l
     28.96250000	     -2.03138670	     -5.33750151	      2.86620183	      1.08941810	      0.90566092	      0.57560485	     17.01168792	      7.35914513	     -7.39740897	     33.58730218	     33.58730218	     18.82489440	    -16.16640658	      0.68526669	     32.08329945	    -14.52565759	      7.16290009	     68.45078179	     68.45078179	      7.36776725	    -19.40585391	     13.14454943	    -12.14726756	      5.32080680	     -0.72892891	     16.49004197	    -16.92650480	     -7.85127050	     50.80047590	     45.64052274	      0.00000000	      0.00000000	      7.38353660	     -8.51899933	      1.04483658	     29.51452986	     46.66016602	      0.00000000	      0.00000000
     28.98357143	     -2.07688979	     -5.46228871	      3.84496373	      1.08745566	      0.90381336	      0.57616069	     17.40413140	      7.49310933	     -7.82117558	     34.40781645	     34.40781645	     19.28828207	    -17.15193539	      1.42227385	     33.86315099	    -14.40874175	      7.26853504	     67.80124354	     67.80124354	      9.04280016	    -19.46160058	     15.42786843	    -12.12657085	      5.27050994	     -2.11602775	     20.17540956	    -15.78174429	     -8.03241820	     54.73432754	     45.52467143	      0.00000000	      0.00000000	      4.56531308	     -8.73993769	      1.30567244	     26.21822913	     46.57133840	      0.00000000	      0.00000000
     29.00464286	     -2.06192788	     -5.44292067	      4.71000315	      1.08550378	      0.90317015	      0.57616483	     17.44568563	      7.41011032	     -8.28219432	     34.80367646	     34.80367646	     20.32227758	    -17.16749601	      3.75977148	     35.18745730	    -13.94064515	      7.24968652	     66.36129843	     66.36129843	     11.76103740	    -19.49159508	     20.45783020	    -12.26853041	      5.06980932	     -1.05858209	     21.91826961	    -16.96107984	     -7.82115741	     59.68287418	     45.35560569	      0.00000000	      0.00000000	      3.24982338	     -8.26292886	      1.66327807	     22.92005602	     46.47565643	      0.00000000	      0.00000000
     29.02571429	     -2.14841585	     -5.37648541	      5.58978122	      1.08348007	      0.90331632	      0.57581026	     17.29176427	      7.23021995	     -8.84802079	     34.59175742	     34.59175742	     20.47121023	    -17.32599231	      4.06781103	     36.06216995	    -13.46212254	      6.95767730	     63.72764430	     63.72764430	     12.65236085	    -19.49214029	     20.28736662	    -12.26190563	      4.82949900	     -1.03792189	     25.13697142	    -16.95485870	     -8.14081020	     62.54777809	     45.28674676	      0.00000000	      0.00000000	      0.79831157	     -8.25890524	      1.79899026	     21.65997602	     46.39454874	      0.00000000	      0.00000000
     29.04678571	     -2.34560795	     -5.21643718	      6.43655815	      1.08128637	      0.90422867	      0.57497428	     17.05854751	      6.91399067	     -9.41469860	     34.03668820	     34.03668820	     20.48048571	    -17.33826966	      4.29739729	     36.63143518	    -12.67585767	      6.75946883	     60.33294301	     60.33294301	     13.25446460	    -19.43855140	     20.07539380	    -12.11753136	      4.49161455	     -0.66505014	     28.28933641	    -17.35540919	     -8.33376459	     65.16474343	     45.22132195	      0.00000000	      0.00000000	     -1.37129156	     -8.26288790	      1.88852455	     20.83170299	     46.32586457	      0.00000000	      0.00000000
     29.06785714	     -2.65976375	     -5.03274620	      7.29690536	      1.07901638	      0.90572617	      0.57360834	     16.74172232	      6.50628698	    -10.09085078	     33.10196861	     33.10196861	     20.32107041	    -17.12552350	      4.33390666	     36.87525031	    -11.73132306	      6.68649254	     56.19228972	     56.19228972	     12.63091158	    -19.33996249	     17.54129260	    -12.02991090	      4.26384980	     -0.36686553	     30.47722193	    -18.17683787	     -7.59854092	     71.05835721	     45.02391616	      0.00000000	      0.00000000	     -3.92966651	     -8.50085782	      2.52945125	     21.45466034	     46.07259171	      0.00000000	      0.00000000
     29.08892857	     -3.04557581	     -4.76885974	      8.10108081	      1.07678718	      0.90783536	      0.57191754	     16.26400993	      6.01261984	    -10.76029755	     31.78270357	     31.78270357	     19.89892249	    -16.83060964	      3.83337934	     36.76629964	    -10.63179590	      6.74509159	     51.52023423	     51.52023423	     11.46917694	    -19.14131510	     14.79687744	    -11.76328124	      3.90936808	     -0.02198623	     33.22304193	    -18.81035311	     -7.27665086	     75.25007296	     44.91198666	      0.00000000	      0.00000000	     -6.24234072	     -8.80875191	      3.64101815	     22.06684773	     45.73569039	      0.00000000	      0.00000000
     29.11000000	     -3.42748235	     -4.52740480	      8.86573266	      1.07461955	      0.91038458	      0.56992999	     15.58063887	      5.54379307	    -11.49915276	     30.10115556	     30.10115556	     19.24899151	    -16.34762617	      2.93222862	     36.33182155	     -9.55575919	      6.98439266	     46.54187151	     46.54187151	      9.71228237	    -18.77777747	     11.71233811	    -11.50491337	      3.59660223	      0.32760062	     36.11255766	    -19.47836872	     -6.77257387	     79.21241592	     44.81381153	      0.00000000	      0.00000000	     -8.53314641	     -9.24190584	      5.21586956	     23.25477853	     45.31995200	      0.00000000	      0.00000000
     29.13107143	     -3.81415898	     -4.32969748	      9.57079735	      1.07262365	      0.91310661	      0.56777105	     14.73489947	      5.15951566	    -12.24056031	     28.11446238	     28.11446238	     18.40362776	    -15.80775920	      1.64072878	     35.70923606	     -8.59778275	      7.32828673	     41.58818899	     41.58818899	      7.80400991	    -18.11497118	      9.12733772	    -11.17019501	      3.34383045	      0.83250766	     38.96945810	    -20.00754544	     -6.60700812	     82.84925995	     44.92765197	      0.00000000	      0.00000000	    -10.98863003	    -10.71774439	     13.53869813	     25.59771547	     44.01661930	      0.00000000	      0.00000000
     29.15214286	     -4.17024004	     -4.15100326	     10.19788991	      1.07077923	      0.91596003	      0.56548497	     13.80752302	      4.84361468	    -12.92570165	     26.09448632	     26.09448632	     18.02263371	    -14.91283633	      1.79695251	     35.03820352	     -7.78542938	      7.64353727	     37.10145241	     37.10145241	      6.92586142	    -16.60504794	      9.49986730	    -10.85299863	      3.06928577	      1.10399081	     42.16127730	    -20.11376725	     -6.31399051	     85.56406987	     44.84982857	      0.00000000	      0.00000000	    -12.58920563	    -10.82368197	     13.57579167	     25.71675400	     43.99408839	      0.00000000	      0.00000000
     29.17321429	     -4.57046272	     -4.10303984	     10.78793532	      1.06913642	      0.91822762	      0.56307915	     12.88730377	      4.64171846	    -13.80401489	     23.95598170	     23.95598170	     17.14124109	    -13.97112215	      0.28503729	     34.43825706	     -7.28286042	      7.72481349	     33.00450724	     33.00450724	      5.14694024	    -14.90621747	      7.60315323	    -10.53576589	      2.95908473	      1.42759558	     44.96400702	    -20.81862257	     -4.99708606	     89.69970576	     44.72989412	      0.00000000	      0.00000000	    -14.93651274	    -11.43805457	     13.95807347	     28.76608711	     43.96269434	      0.00000000	      0.00000000
     29.19428571	     -4.87063401	     -4.07936065	     11.27689083	      1.06768653	      0.92039600	      0.56070596	     11.91505872	      4.55538467	    -14.46884728	     21.96643917	     21.96643917	     16.77288995	    -12.91121036	      0.29522396	     33.84845193	     -6.93331898	      7.60777738	     29.67481840	     29.67481840	      4.33658586	    -12.78382331	      8.06457460	    -10.25474732	      2.81838459	      1.64996334	     48.05345580	    -20.59796993	     -4.57232552	     92.20991963	     44.65772312	      0.00000000	      0.00000000	    -16.29359962	    -11.51064542	     14.18153579	     29.11078536	     43.92444715	      0.00000000	      0.00000000
     29.21535714	     -5.21011992	     -4.12188375	     11.72506498	      1.06636300	      0.92181353	      0.55816335	     11.10068112	      4.46930820	    -15.34106441	     20.18151472	     20.18151472	     16.18889241	    -11.73782775	     -0.84126092	     33.46837662	     -6.71434727	      7.25953764	     27.07648431	     27.07648431	      3.29349075	    -10.79492030	      7.66566632	     -9.97657913	      2.77608663	      1.91704401	     50.83521964	    -20.89759711	     -3.16440141	     95.50628194	     44.55522708	      0.00000000	      0.00000000	    -18.23566622	    -12.04080915	     14.83600016	     32.02343335	     43.86192991	      0.00000000	      0.00000000
     29.23642857	     -5.46524768	     -4.23361955	     12.10068234	      1.06523793	      0.92279592	      0.55565700	     10.31720831	      4.53136136	    -15.93122239	     18.60141431	     18.60141431	     15.72349573	    -10.87650393	     -1.67171655	     33.07528702	     -6.60431560	      6.90332494	     25.06749212	     25.06749212	      2.28750462	     -9.26278311	      7.17312590	     -9.72887043	      2.76769778	      2.11669311	     53.57827549	    -20.57820033	     -2.37516478	     97.81777164	     44.51480067	      0.00000000	      0.00000000	    -19.76170523	    -12.53013197	     16.01850566	     34.12404756	     43.79067816	      0.00000000	      0.00000000
     29.25750000	     -6.00246173	     -4.39359597	     12.38365124	      1.06400053	      0.92268621	      0.55304753	     10.26962218	      4.52594520	    -16.19597244	     17.83644759	     17.83644759	     15.66097423	    -10.62304409	     -1.58757480	     33.18380395	     -6.42686062	      6.71012552	     23.83910551	     23.83910551	      1.69372242	     -8.43831548	      7.48208698	     -9.06352511	      2.69590133	      2.67952965	     56.01451750	    -20.40699758	     -2.43255326	     98.91393056	     44.49456346	      0.00000000	      0.00000000	    -20.36746762	    -12.51928021	     16.12352876	     34.11900940	     43.77578620	      0.00000000	      0.00000000
     29.27857143	     -5.90276892	     -4.53917294	     12.68616143	      1.06346970	      0.92311420	      0.55028415	      9.29154320	      4.63629652	    -16.89235916	     16.69442687	     16.69442687	     15.53286334	     -9.49135621	     -2.30592719	     32.45365523	     -6.51645175	      6.09313513	     22.66271180	     22.66271180	      0.76396946	     -7.26581861	      5.73291215	     -9.32696084	      2.79789375	      2.54831162	     58.17024694	    -19.74828479	     -0.97420879	    101.96611171	     44.40840759	      0.00000000	      0.00000000	    -21.73195051	    -12.93052826	     17.29731560	     36.82212441	     43.73037569	      0.00000000	      0.00000000
